<?xml version="1.0" encoding="utf-8"?>
<svg xmlns="http://www.w3.org/2000/svg" style="margin: auto; background: none; display: block; shape-rendering: auto;" width="280" height="250" preserveAspectRatio="xMidYMid">
<style type="text/css">
  text {
    text-anchor: middle; font-size: 50px; opacity: 0;
  }
</style>
<g style="transform-origin:140px 125px;transform:scale(1)">
<g transform="translate(140,125)">
  <g transform="translate(0,0)"><g class="path" style="opacity: 1; transform-origin: -58.765px -5.12888px; animation: 1s linear -0.5775s infinite normal forwards running fade-ff6dd13b-d186-45d0-a287-c936e024f1b2;"><path d="M7.01 0L4.00 0L4.00-35.01L7.01-35.01L7.01 0" fill="#38d39f" stroke="none" stroke-width="none" transform="translate(-64.26998901367188,12.376123695373535)" style="fill: rgb(56, 211, 159);"></path></g><g class="path" style="opacity: 1; transform-origin: -42.395px -0.123877px; animation: 1s linear -0.495s infinite normal forwards running fade-ff6dd13b-d186-45d0-a287-c936e024f1b2;"><path d="M30.22-6.86L30.22-6.86L30.22-6.86Q30.22-5.35 29.65-4.00L29.65-4.00L29.65-4.00Q29.08-2.66 28.08-1.66L28.08-1.66L28.08-1.66Q27.08-0.66 25.73-0.09L25.73-0.09L25.73-0.09Q24.39 0.49 22.88 0.49L22.88 0.49L20.87 0.49L20.87 0.49Q19.36 0.49 18.02-0.09L18.02-0.09L18.02-0.09Q16.67-0.66 15.67-1.66L15.67-1.66L15.67-1.66Q14.67-2.66 14.10-4.00L14.10-4.00L14.10-4.00Q13.53-5.35 13.53-6.86L13.53-6.86L13.53-18.14L13.53-18.14Q13.53-19.65 14.10-21.00L14.10-21.00L14.10-21.00Q14.67-22.34 15.67-23.34L15.67-23.34L15.67-23.34Q16.67-24.34 18.02-24.91L18.02-24.91L18.02-24.91Q19.36-25.49 20.87-25.49L20.87-25.49L22.88-25.49L22.88-25.49Q24.39-25.49 25.73-24.91L25.73-24.91L25.73-24.91Q27.08-24.34 28.08-23.34L28.08-23.34L28.08-23.34Q29.08-22.34 29.65-21.00L29.65-21.00L29.65-21.00Q30.22-19.65 30.22-18.14L30.22-18.14L30.22-6.86zM27.22-6.69L27.22-18.31L27.22-18.31Q27.22-19.21 26.88-20.01L26.88-20.01L26.88-20.01Q26.54-20.80 25.95-21.39L25.95-21.39L25.95-21.39Q25.37-21.97 24.57-22.31L24.57-22.31L24.57-22.31Q23.78-22.66 22.88-22.66L22.88-22.66L20.87-22.66L20.87-22.66Q19.97-22.66 19.18-22.31L19.18-22.31L19.18-22.31Q18.38-21.97 17.80-21.39L17.80-21.39L17.80-21.39Q17.21-20.80 16.87-20.01L16.87-20.01L16.87-20.01Q16.53-19.21 16.53-18.31L16.53-18.31L16.53-6.69L16.53-6.69Q16.53-5.79 16.87-4.99L16.87-4.99L16.87-4.99Q17.21-4.20 17.80-3.61L17.80-3.61L17.80-3.61Q18.38-3.03 19.18-2.69L19.18-2.69L19.18-2.69Q19.97-2.34 20.87-2.34L20.87-2.34L22.88-2.34L22.88-2.34Q23.78-2.34 24.57-2.69L24.57-2.69L24.57-2.69Q25.37-3.03 25.95-3.61L25.95-3.61L25.95-3.61Q26.54-4.20 26.88-4.99L26.88-4.99L26.88-4.99Q27.22-5.79 27.22-6.69L27.22-6.69" fill="#38d39f" stroke="none" stroke-width="none" transform="translate(-64.26998901367188,12.376123695373535)" style="fill: rgb(56, 211, 159);"></path></g><g class="path" style="opacity: 1; transform-origin: -19.69px -0.123877px; animation: 1s linear -0.4125s infinite normal forwards running fade-ff6dd13b-d186-45d0-a287-c936e024f1b2;"><path d="M52.93 0L51.93 0L50.27-2.49L50.27-2.49Q49.24-1.15 47.71-0.33L47.71-0.33L47.71-0.33Q46.17 0.49 44.34 0.49L44.34 0.49L43.58 0.49L43.58 0.49Q42.07 0.49 40.72-0.09L40.72-0.09L40.72-0.09Q39.38-0.66 38.38-1.66L38.38-1.66L38.38-1.66Q37.38-2.66 36.80-4.00L36.80-4.00L36.80-4.00Q36.23-5.35 36.23-6.86L36.23-6.86L36.23-7.10L36.23-7.10Q36.23-8.62 36.80-9.96L36.80-9.96L36.80-9.96Q37.38-11.30 38.38-12.30L38.38-12.30L38.38-12.30Q39.38-13.31 40.72-13.88L40.72-13.88L40.72-13.88Q42.07-14.45 43.58-14.45L43.58-14.45L49.93-14.45L49.93-18.31L49.93-18.31Q49.93-19.21 49.58-20.01L49.58-20.01L49.58-20.01Q49.24-20.80 48.66-21.39L48.66-21.39L48.66-21.39Q48.07-21.97 47.28-22.31L47.28-22.31L47.28-22.31Q46.48-22.66 45.58-22.66L45.58-22.66L43.82-22.66L43.82-22.66Q42.92-22.66 42.13-22.31L42.13-22.31L42.13-22.31Q41.33-21.97 40.75-21.39L40.75-21.39L40.75-21.39Q40.16-20.80 39.82-20.01L39.82-20.01L39.82-20.01Q39.48-19.21 39.48-18.31L39.48-18.31L39.48-17.41L36.47-17.90L36.47-18.14L36.47-18.14Q36.47-19.65 37.05-21.00L37.05-21.00L37.05-21.00Q37.62-22.34 38.62-23.34L38.62-23.34L38.62-23.34Q39.62-24.34 40.97-24.91L40.97-24.91L40.97-24.91Q42.31-25.49 43.82-25.49L43.82-25.49L45.58-25.49L45.58-25.49Q47.09-25.49 48.44-24.91L48.44-24.91L48.44-24.91Q49.78-24.34 50.78-23.34L50.78-23.34L50.78-23.34Q51.78-22.34 52.36-21.00L52.36-21.00L52.36-21.00Q52.93-19.65 52.93-18.14L52.93-18.14L52.93 0zM49.93-6.69L49.93-12.11L43.58-12.11L43.58-12.11Q42.68-12.11 41.88-11.77L41.88-11.77L41.88-11.77Q41.09-11.43 40.50-10.83L40.50-10.83L40.50-10.83Q39.92-10.23 39.58-9.44L39.58-9.44L39.58-9.44Q39.23-8.64 39.23-7.74L39.23-7.74L39.23-6.69L39.23-6.69Q39.23-5.79 39.58-4.99L39.58-4.99L39.58-4.99Q39.92-4.20 40.50-3.61L40.50-3.61L40.50-3.61Q41.09-3.03 41.88-2.69L41.88-2.69L41.88-2.69Q42.68-2.34 43.58-2.34L43.58-2.34L45.58-2.34L45.58-2.34Q46.48-2.34 47.28-2.69L47.28-2.69L47.28-2.69Q48.07-3.03 48.66-3.61L48.66-3.61L48.66-3.61Q49.24-4.20 49.58-4.99L49.58-4.99L49.58-4.99Q49.93-5.79 49.93-6.69L49.93-6.69" fill="#38d39f" stroke="none" stroke-width="none" transform="translate(-64.26998901367188,12.376123695373535)" style="fill: rgb(56, 211, 159);"></path></g><g class="path" style="opacity: 1; transform-origin: 3.01501px -4.88387px; animation: 1s linear -0.33s infinite normal forwards running fade-ff6dd13b-d186-45d0-a287-c936e024f1b2;"><path d="M75.63 0L74.63 0L72.97-2.54L72.97-2.54Q71.95-1.15 70.41-0.33L70.41-0.33L70.41-0.33Q68.87 0.49 67.04 0.49L67.04 0.49L66.28 0.49L66.28 0.49Q64.77 0.49 63.43-0.09L63.43-0.09L63.43-0.09Q62.08-0.66 61.08-1.66L61.08-1.66L61.08-1.66Q60.08-2.66 59.51-4.00L59.51-4.00L59.51-4.00Q58.94-5.35 58.94-6.86L58.94-6.86L58.94-18.14L58.94-18.14Q58.94-19.65 59.51-21.00L59.51-21.00L59.51-21.00Q60.08-22.34 61.08-23.34L61.08-23.34L61.08-23.34Q62.08-24.34 63.43-24.91L63.43-24.91L63.43-24.91Q64.77-25.49 66.28-25.49L66.28-25.49L67.04-25.49L67.04-25.49Q68.73-25.49 70.17-24.80L70.17-24.80L70.17-24.80Q71.61-24.12 72.63-22.90L72.63-22.90L72.63-35.01L75.63-35.01L75.63 0zM72.63-6.69L72.63-18.31L72.63-18.31Q72.63-19.21 72.29-20.01L72.29-20.01L72.29-20.01Q71.95-20.80 71.36-21.39L71.36-21.39L71.36-21.39Q70.78-21.97 69.98-22.31L69.98-22.31L69.98-22.31Q69.19-22.66 68.29-22.66L68.29-22.66L66.28-22.66L66.28-22.66Q65.38-22.66 64.59-22.31L64.59-22.31L64.59-22.31Q63.79-21.97 63.21-21.39L63.21-21.39L63.21-21.39Q62.62-20.80 62.28-20.01L62.28-20.01L62.28-20.01Q61.94-19.21 61.94-18.31L61.94-18.31L61.94-6.69L61.94-6.69Q61.94-5.79 62.28-4.99L62.28-4.99L62.28-4.99Q62.62-4.20 63.21-3.61L63.21-3.61L63.21-3.61Q63.79-3.03 64.59-2.69L64.59-2.69L64.59-2.69Q65.38-2.34 66.28-2.34L66.28-2.34L68.29-2.34L68.29-2.34Q69.19-2.34 69.98-2.69L69.98-2.69L69.98-2.69Q70.78-3.03 71.36-3.61L71.36-3.61L71.36-3.61Q71.95-4.20 72.29-4.99L72.29-4.99L72.29-4.99Q72.63-5.79 72.63-6.69L72.63-6.69" fill="#38d39f" stroke="none" stroke-width="none" transform="translate(-64.26998901367188,12.376123695373535)" style="fill: rgb(56, 211, 159);"></path></g><g class="path" style="opacity: 1; transform-origin: 19.875px -20.6339px; animation: 1s linear -0.2475s infinite normal forwards running fade-ff6dd13b-d186-45d0-a287-c936e024f1b2;"><path d="M85.89-31.01L82.40-31.01L82.40-35.01L85.89-35.01L85.89-31.01" fill="#38d39f" stroke="none" stroke-width="none" transform="translate(-64.26998901367188,12.376123695373535)" style="fill: rgb(56, 211, 159);"></path></g><g class="path" style="opacity: 1; transform-origin: 19.87px -0.123877px; animation: 1s linear -0.165s infinite normal forwards running fade-ff6dd13b-d186-45d0-a287-c936e024f1b2;"><path d="M85.64 0L82.64 0L82.64-25L85.64-25L85.64 0" fill="#38d39f" stroke="none" stroke-width="none" transform="translate(-64.26998901367188,12.376123695373535)" style="fill: rgb(56, 211, 159);"></path></g><g class="path" style="opacity: 1; transform-origin: 36.73px -0.368876px; animation: 1s linear -0.0825s infinite normal forwards running fade-ff6dd13b-d186-45d0-a287-c936e024f1b2;"><path d="M109.35 0L106.35 0L106.35-18.31L106.35-18.31Q106.35-19.21 106.01-20.01L106.01-20.01L106.01-20.01Q105.66-20.80 105.08-21.39L105.08-21.39L105.08-21.39Q104.49-21.97 103.70-22.31L103.70-22.31L103.70-22.31Q102.91-22.66 102.00-22.66L102.00-22.66L100-22.66L100-22.66Q99.10-22.66 98.30-22.31L98.30-22.31L98.30-22.31Q97.51-21.97 96.92-21.39L96.92-21.39L96.92-21.39Q96.34-20.80 96.00-20.01L96.00-20.01L96.00-20.01Q95.65-19.21 95.65-18.31L95.65-18.31L95.65 0L92.65 0L92.65-25L93.65-25L95.29-22.46L95.29-22.46Q96.31-23.85 97.86-24.67L97.86-24.67L97.86-24.67Q99.41-25.49 101.25-25.49L101.25-25.49L102.00-25.49L102.00-25.49Q103.52-25.49 104.86-24.91L104.86-24.91L104.86-24.91Q106.20-24.34 107.20-23.34L107.20-23.34L107.20-23.34Q108.20-22.34 108.78-21.00L108.78-21.00L108.78-21.00Q109.35-19.65 109.35-18.14L109.35-18.14L109.35 0" fill="#38d39f" stroke="none" stroke-width="none" transform="translate(-64.26998901367188,12.376123695373535)" style="fill: rgb(56, 211, 159);"></path></g><g class="path" style="opacity: 1; transform-origin: 59.68px 4.63612px; animation: 1s linear 0s infinite normal forwards running fade-ff6dd13b-d186-45d0-a287-c936e024f1b2;"><path d="M132.30 3.15L132.30 3.15L132.30 3.15Q132.30 4.66 131.73 5.93L131.73 5.93L131.73 5.93Q131.15 7.20 130.15 8.11L130.15 8.11L130.15 8.11Q129.15 9.01 127.81 9.51L127.81 9.51L127.81 9.51Q126.46 10.01 124.95 10.01L124.95 10.01L123.71 10.01L123.71 10.01Q122.19 10.01 120.85 9.51L120.85 9.51L120.85 9.51Q119.51 9.01 118.51 8.11L118.51 8.11L118.51 8.11Q117.50 7.20 116.93 5.93L116.93 5.93L116.93 5.93Q116.36 4.66 116.36 3.15L116.36 3.15L116.36 3.05L116.36 3.05Q116.36 1.59 116.89 0.37L116.89 0.37L116.89 0.37Q117.43-0.85 118.36-1.76L118.36-1.76L118.36-1.76Q117.19-2.47 116.49-3.67L116.49-3.67L116.49-3.67Q115.80-4.88 115.80-6.35L115.80-6.35L115.80-6.35Q115.80-7.67 116.36-8.80L116.36-8.80L116.36-8.80Q116.92-9.94 117.90-10.64L117.90-10.64L117.90-10.64Q116.72-11.67 116.04-13.11L116.04-13.11L116.04-13.11Q115.36-14.55 115.36-16.26L115.36-16.26L115.36-18.14L115.36-18.14Q115.36-19.65 115.93-21.00L115.93-21.00L115.93-21.00Q116.50-22.34 117.50-23.34L117.50-23.34L117.50-23.34Q118.51-24.34 119.85-24.91L119.85-24.91L119.85-24.91Q121.19-25.49 122.71-25.49L122.71-25.49L123.95-25.49L123.95-25.49Q125.78-25.49 127.33-24.67L127.33-24.67L127.33-24.67Q128.88-23.85 129.91-22.46L129.91-22.46L131.54-25L132.54-25L132.54-16.26L132.54-16.26Q132.54-14.75 131.97-13.40L131.97-13.40L131.97-13.40Q131.40-12.06 130.40-11.06L130.40-11.06L130.40-11.06Q129.39-10.06 128.05-9.48L128.05-9.48L128.05-9.48Q126.71-8.91 125.20-8.91L125.20-8.91L120.85-8.91L120.85-8.91Q120.34-8.91 119.87-8.70L119.87-8.70L119.87-8.70Q119.41-8.50 119.06-8.15L119.06-8.15L119.06-8.15Q118.70-7.81 118.51-7.34L118.51-7.34L118.51-7.34Q118.31-6.86 118.31-6.35L118.31-6.35L118.31-6.35Q118.31-5.83 118.51-5.37L118.51-5.37L118.51-5.37Q118.70-4.91 119.06-4.55L119.06-4.55L119.06-4.55Q119.41-4.20 119.87-4.00L119.87-4.00L119.87-4.00Q120.34-3.81 120.85-3.81L120.85-3.81L124.95-3.81L124.95-3.81Q126.46-3.81 127.81-3.31L127.81-3.31L127.81-3.31Q129.15-2.81 130.15-1.90L130.15-1.90L130.15-1.90Q131.15-1.00 131.73 0.27L131.73 0.27L131.73 0.27Q132.30 1.54 132.30 3.05L132.30 3.05L132.30 3.15zM129.57-16.09L129.57-18.31L129.57-18.31Q129.57-19.21 129.22-20.01L129.22-20.01L129.22-20.01Q128.88-20.80 128.28-21.39L128.28-21.39L128.28-21.39Q127.69-21.97 126.89-22.31L126.89-22.31L126.89-22.31Q126.10-22.66 125.20-22.66L125.20-22.66L122.71-22.66L122.71-22.66Q121.80-22.66 121.01-22.31L121.01-22.31L121.01-22.31Q120.21-21.97 119.63-21.39L119.63-21.39L119.63-21.39Q119.04-20.80 118.70-20.01L118.70-20.01L118.70-20.01Q118.36-19.21 118.36-18.31L118.36-18.31L118.36-16.09L118.36-16.09Q118.36-15.19 118.70-14.39L118.70-14.39L118.70-14.39Q119.04-13.60 119.63-13.01L119.63-13.01L119.63-13.01Q120.21-12.43 121.01-12.08L121.01-12.08L121.01-12.08Q121.80-11.74 122.71-11.74L122.71-11.74L125.20-11.74L125.20-11.74Q126.10-11.74 126.89-12.08L126.89-12.08L126.89-12.08Q127.69-12.43 128.28-13.01L128.28-13.01L128.28-13.01Q128.88-13.60 129.22-14.39L129.22-14.39L129.22-14.39Q129.57-15.19 129.57-16.09L129.57-16.09zM129.44 3.30L129.44 2.91L129.44 2.91Q129.44 2.00 129.10 1.28L129.10 1.28L129.10 1.28Q128.76 0.56 128.17 0.07L128.17 0.07L128.17 0.07Q127.59-0.42 126.79-0.68L126.79-0.68L126.79-0.68Q126.00-0.95 125.10-0.95L125.10-0.95L123.56-0.95L123.56-0.95Q122.66-0.95 121.86-0.68L121.86-0.68L121.86-0.68Q121.07-0.42 120.48 0.07L120.48 0.07L120.48 0.07Q119.90 0.56 119.56 1.28L119.56 1.28L119.56 1.28Q119.21 2.00 119.21 2.91L119.21 2.91L119.21 3.30L119.21 3.30Q119.21 4.20 119.56 4.91L119.56 4.91L119.56 4.91Q119.90 5.62 120.48 6.12L120.48 6.12L120.48 6.12Q121.07 6.62 121.86 6.88L121.86 6.88L121.86 6.88Q122.66 7.15 123.56 7.15L123.56 7.15L125.10 7.15L125.10 7.15Q126.00 7.15 126.79 6.88L126.79 6.88L126.79 6.88Q127.59 6.62 128.17 6.12L128.17 6.12L128.17 6.12Q128.76 5.62 129.10 4.91L129.10 4.91L129.10 4.91Q129.44 4.20 129.44 3.30L129.44 3.30" fill="#38d39f" stroke="none" stroke-width="none" transform="translate(-64.26998901367188,12.376123695373535)" style="fill: rgb(56, 211, 159);"></path></g></g>
</g>
</g>
<style id="fade-ff6dd13b-d186-45d0-a287-c936e024f1b2" data-anikit="">@keyframes fade-ff6dd13b-d186-45d0-a287-c936e024f1b2
{
  0% {
    animation-timing-function: cubic-bezier(0.2057,0.573,0.3723,0.9184);
    opacity: 1;
  }
  100% {
    opacity: 0;
  }
}</style></svg>