<?xml version="1.0" encoding="utf-8"?>
<!-- Generator: Adobe Illustrator 16.0.0, SVG Export Plug-In . SVG Version: 6.00 Build 0)  -->
<!DOCTYPE svg PUBLIC "-//W3C//DTD SVG 1.1//EN" "http://www.w3.org/Graphics/SVG/1.1/DTD/svg11.dtd">
<svg version="1.1" id="Layer_1" xmlns="http://www.w3.org/2000/svg" xmlns:xlink="http://www.w3.org/1999/xlink" x="0px" y="0px"
	 width="1366px" height="728px" viewBox="0 0 1366 728" enable-background="new 0 0 1366 728" xml:space="preserve">
<g>
	<g id="Group_76" transform="translate(350.4 496.485)">
		<path fill="#FF6752" d="M1015.6-496.485v207.55c-10.68,2.34-21.99,4.45-33.97,6.27c-12.681,1.94-26.11,3.57-40.33,4.83
			c-50.65,4.49-111.311,4.36-183.9-2.75c-388.49-38.05-357.689,116.43-559.95,332.71C61.74,197.245-195.7,175.565-350.4,145.585
			v-642.07H1015.6z"/>
		<linearGradient id="SVGID_1_" gradientUnits="userSpaceOnUse" x1="-1.7516" y1="-645.4567" x2="584.6754" y2="100.5529">
			<stop  offset="0" style="stop-color:#FEB53A"/>
			<stop  offset="1" style="stop-color:#D65C15"/>
		</linearGradient>
		<path opacity="0.15" fill="url(#SVGID_1_)" enable-background="new    " d="M1015.6-496.485v218.54
			c-22.5,6.58-47.3,7.54-74.3,0.11c-3.08-0.85-6.19-1.8-9.33-2.87c-1.03-0.35-2.061-0.72-3.09-1.09
			c-109.61-39.73-247.891-78.12-376.57-63.92c-104.62,11.53-202.89,57.82-274.26,166.39C38.21,185.545-261.22,94.455-350.4,56.245
			v-552.73H1015.6z"/>
		<linearGradient id="SVGID_2_" gradientUnits="userSpaceOnUse" x1="3.0551" y1="-650.9728" x2="594.9912" y2="102.045">
			<stop  offset="0" style="stop-color:#FEB53A"/>
			<stop  offset="1" style="stop-color:#D65C15"/>
		</linearGradient>
		<path opacity="0.15" fill="url(#SVGID_2_)" enable-background="new    " d="M1015.6-496.485v208.34
			c-10.99,2.46-22.33,4.26-33.97,5.48c-15.99,1.69-32.561,2.27-49.66,1.96c-111.44-2-244.73-42.01-379.66-65.01
			c-198.5-33.85-400.55-30.88-541.84,184.07C-155.57,90.945-277.5,83.395-350.4,32.985v-529.47H1015.6z"/>
	</g>
</g>
</svg>
